<?xml version="1.0" standalone="no"?>
<!DOCTYPE svg PUBLIC "-//W3C//DTD SVG 1.1//EN"
  "http://www.w3.org/Graphics/SVG/1.1/DTD/svg11.dtd">
<svg width="295.95013427734375mm" height="301.97245788574213mm" viewBox="-149.6581268310547 -146.54345703124997 295.95013427734375 301.97245788574213" xmlns="http://www.w3.org/2000/svg" version="1.1">
	<title>svgOutput</title>
	<desc>made with tinkercad</desc>
<path d="M 132.1199951171875 117.23400115966794 L 131.14199829101562 119.1210021972656 L 131.47242736816406 119.63524627685544 L 132.75799560546875 121.63600158691403 L 134.88099670410156 121.52999877929685 L 136.00999450683594 121.71800231933591 L 136.29200744628906 122.67800140380857 L 136.06924438476562 122.87999725341794 L 135.44400024414062 123.44699859619138 L 133.60000610351562 124.50499725341794 L 133.60000610351562 127.495002746582 L 133.76699829101562 127.59100341796872 L 134.6179962158203 127.713996887207 L 134.65853881835938 127.84071350097653 L 134.76100158691406 128.1609954833984 L 135.44400024414062 128.55299377441403 L 136.29200744628906 129.3220062255859 L 136.00999450683594 130.28199768066403 L 135.46844482421875 130.37236022949216 L 135.11700439453125 130.43099975585935 L 135.16200256347656 130.9210052490234 L 135.49269104003906 131.0720062255859 L 137.8820037841797 132.1629943847656 L 139.26400756835938 131.1736907958984 L 139.4060516357422 131.0720062255859 L 139.61000061035156 130.92599487304685 L 140.66299438476562 130.47399902343747 L 141.352294921875 131.0720062255859 L 141.41799926757812 131.12899780273435 L 141.1199951171875 132.2339935302734 L 140.14199829101562 134.1210021972656 L 140.47242736816406 134.6352386474609 L 141.75799560546875 136.63600158691403 L 143.88099670410156 136.52999877929685 L 145.00999450683594 136.7180023193359 L 145.29200744628906 137.67799377441403 L 144.44400024414062 138.4470062255859 L 143.02003479003906 139.26400756835935 L 142.60000610351562 139.50500488281247 L 142.60000610351562 141.88078308105466 L 142.60000610351562 142.49499511718747 L 144.44400024414062 143.55299377441403 L 145.29200744628906 144.3220062255859 L 145.00999450683594 145.28199768066403 L 143.88099670410156 145.4700012207031 L 142.60000610351562 145.4060363769531 L 141.75799560546875 145.3639984130859 L 140.41380310058594 147.45599365234372 L 140.14199829101562 147.87899780273435 L 141.1199951171875 149.76600646972653 L 141.41799926757812 150.8710021972656 L 140.66299438476562 151.52600097656247 L 139.61000061035156 151.0740051269531 L 139.26400756835938 150.82630920410153 L 137.8820037841797 149.83700561523435 L 135.16799926757812 151.07626342773435 L 135.16200256347656 151.07899475097653 L 135.11819458007812 151.55200195312497 L 134.96600341796875 153.19500732421872 L 134.6179962158203 154.2859954833984 L 133.62899780273438 154.42900085449216 L 132.98800659179688 153.47999572753903 L 132.22207641601562 151.55200195312497 L 132.2030029296875 151.50399780273435 L 131.07200622558594 151.34155273437497 L 129.24400329589844 151.07899475097653 L 127.93399810791016 152.75300598144528 L 127.052001953125 153.48300170898435 L 126.14199829101562 153.06799316406247 L 126.11599731445312 151.9230041503906 L 126.52400207519531 149.83700561523435 L 126.05949401855469 149.43457031249997 L 124.26399993896484 147.87899780273435 L 122.25700378417969 148.57899475097653 L 121.12100219726562 148.71600341796872 L 120.58000183105469 147.87499999999997 L 120.83602905273438 147.45599365234372 L 121.177001953125 146.89799499511716 L 122.64800262451172 145.3639984130859 L 122.474853515625 144.7740325927734 L 121.97854614257812 143.08293151855466 L 121.80599975585938 142.49499511718747 L 119.73899841308594 141.99899291992185 L 118.70800018310547 141.49999999999997 L 118.70800018310547 140.49999999999997 L 119.73899841308594 140.0010070800781 L 120.98622131347656 139.70172119140622 L 121.80599975585938 139.50500488281247 L 121.8767318725586 139.26400756835935 L 122.64800262451172 136.63600158691403 L 122.41300201416016 136.3899993896484 L 120.24400329589844 136.07899475097653 L 118.93399810791016 137.75300598144528 L 118.052001953125 138.48300170898435 L 117.14199829101562 138.06799316406247 L 117.11599731445312 136.9230041503906 L 117.45925903320312 135.1679992675781 L 117.52400207519531 134.83700561523435 L 115.26399993896484 132.87899780273435 L 114.68800354003906 133.07989501953122 L 113.25700378417969 133.57899475097653 L 112.12100219726562 133.71600341796872 L 111.58000183105469 132.87499999999997 L 112.177001953125 131.89799499511716 L 112.96907806396484 131.0720062255859 L 113.64800262451172 130.3639984130859 L 112.97854614257812 128.08293151855466 L 112.80599975585938 127.495002746582 L 110.73899841308594 126.99900054931638 L 109.70800018310547 126.49999999999997 L 109.70800018310547 125.49999999999997 L 110.73899841308594 125.00099945068357 L 111.98622131347656 124.70171356201169 L 112.80599975585938 124.50499725341794 L 113.474853515625 122.225959777832 L 113.64800262451172 121.63600158691403 L 112.177001953125 120.10199737548825 L 111.58000183105469 119.12499999999997 L 112.12100219726562 118.28399658203122 L 113.25700378417969 118.42099761962888 L 114.4676284790039 118.84323883056638 L 114.68800354003906 118.92010498046872 L 115.26399993896484 119.1210021972656 L 115.6529769897461 118.78399658203122 L 117.52400207519531 117.16300201416013 L 117.3620376586914 116.33493804931638 L 117.11599731445312 115.07700347900388 L 117.12483215332031 114.68800354003903 L 117.14199829101562 113.93199920654294 L 118.052001953125 113.5169982910156 L 118.93399810791016 114.24700164794919 L 119.27910614013672 114.68800354003903 L 120.24400329589844 115.92099761962888 L 122.87999725341797 115.5423889160156 L 123.2030029296875 115.4960021972656 L 123.52399444580078 114.68800354003903 L 123.98799896240234 113.51999664306638 L 124.62899780273438 112.57099914550778 L 125.61799621582031 112.713996887207 L 125.96600341796875 113.80500030517575 L 126.04779052734375 114.68800354003903 L 126.16200256347656 115.92099761962888 L 128.8820037841797 117.16300201416013 L 130.61000061035156 115.92600250244138 L 131.07200622558594 115.72768402099607 L 131.66299438476562 115.47399902343747 L 132.41799926757812 116.12899780273435 L 132.1199951171875 117.23400115966794 M 20.788999557495117 31.822999954223626 L 22.236000061035156 32.236499786376946 L 22.3732967376709 32.00175476074218 L 23.26099967956543 30.48399925231933 L 23.46044921875 32.76800155639648 L 23.47249984741211 32.90599822998046 L 23.649009704589844 33.05120086669921 L 24.788999557495117 33.98899841308593 L 23.47249984741211 35.072498321533196 L 23.444185256958008 35.396743774414055 L 23.26099967956543 37.49449920654296 L 22.236000061035156 35.74200057983398 L 22.043071746826172 35.79713058471679 L 20.788999557495117 36.155498504638665 L 21.47249984741211 33.98899841308593 L 21.380857467651367 33.6985855102539 L 21.087202072143555 32.76800155639648 L 20.788999557495117 31.822999954223626 M 128.34213256835938 122.38224029541013 L 128.33729553222656 122.37591552734372 L 128.32484436035156 122.35961914062497 L 128.3202667236328 122.35362243652341 L 128.18443298339844 122.17591857910153 L 128.17823791503906 122.16781616210935 L 128.14840698242188 122.12892913818357 L 127.96805572509766 121.89385223388669 L 127.82568359375 121.7082824707031 L 127.59403991699219 121.40608978271482 L 127.59398651123047 121.4060134887695 L 127.59246826171875 121.40485382080075 L 127.38361358642578 121.24481964111325 L 126.97599792480469 120.93243408203122 L 126.89362335205078 120.86930847167966 L 126.89241027832031 120.86839294433591 L 126.89232635498047 120.86830902099607 L 126.8915023803711 120.86748504638669 L 126.84512329101562 120.83200073242185 L 126.73273468017578 120.7460021972656 L 126.5496597290039 120.60591888427732 L 126.24905395507812 120.37544250488278 L 126.24858093261719 120.37508392333982 L 126.24771881103516 120.3744201660156 L 126.16069030761719 120.33819580078122 L 126.06639862060547 120.29895019531247 L 126.0265884399414 120.28254699707028 L 126.0035629272461 120.27306365966794 L 125.99897766113281 120.27109527587888 L 125.45011901855469 120.04333496093747 L 125.44405364990234 120.04081726074216 L 125.05291748046875 119.87876129150388 L 125.03357696533203 119.87099456787107 L 124.9280014038086 119.82720184326169 L 124.83209991455078 119.78742980957028 L 124.6817626953125 119.72507476806638 L 124.68106842041016 119.724983215332 L 124.42642974853516 119.69170379638669 L 124.41919708251953 119.69075775146482 L 124.38040924072266 119.68564605712888 L 123.80725860595703 119.61013031005857 L 123.80682373046875 119.61013031005857 L 123.80653381347656 119.61013031005857 L 123.8054428100586 119.61013031005857 L 123.8042221069336 119.60983276367185 L 123.37750244140625 119.55368041992185 L 123.21239471435547 119.53183746337888 L 123.05387878417969 119.510871887207 L 123 119.50374603271482 L 122.99989318847656 119.50376129150388 L 122.99954986572266 119.50380706787107 L 122.99901580810547 119.50387573242185 L 122.87999725341797 119.51952362060544 L 122.7377700805664 119.53823089599607 L 122.12667846679688 119.61849975585935 L 122.1248550415039 119.6188049316406 L 122.12364196777344 119.61910247802732 L 121.69607543945312 119.67530822753903 L 121.3182373046875 119.72507476806638 L 121.31598663330078 119.72600555419919 L 121.07376861572266 119.82623291015622 L 120.83200073242188 119.92630767822263 L 120.69989013671875 119.9809875488281 L 120.50406646728516 120.0620422363281 L 120.50312805175781 120.06251525878903 L 120.50224304199219 120.06295776367185 L 120.50133514404297 120.06325531005857 L 120.10394287109375 120.22841644287107 L 120.02899932861328 120.2595291137695 L 119.75375366210938 120.37380218505857 L 119.75228118896484 120.3744201660156 L 119.54224395751953 120.5354080200195 L 119.15459442138672 120.83200073242185 L 119.15373992919922 120.83265686035153 L 119.05236053466797 120.91021728515622 L 119.0515365600586 120.9110412597656 L 119.0511474609375 120.91143035888669 L 119.05023956298828 120.91204071044919 L 118.78399658203125 121.1162414550781 L 118.7578125 121.13632202148435 L 118.70828247070312 121.17431640624997 L 118.40766143798828 121.40475463867185 L 118.40746307373047 121.40490722656247 L 118.40608978271484 121.40596008300778 L 118.40601348876953 121.4060134887695 L 118.24481964111328 121.61638641357419 L 117.86930847167969 122.10637664794919 L 117.86839294433594 122.10758972167966 L 117.86748504638672 122.10849761962888 L 117.60591888427734 122.45034027099607 L 117.37442016601562 122.75228118896482 L 117.32149505615234 122.87999725341794 L 117.27317810058594 122.9965896606445 L 117.03689575195312 123.56583404541013 L 117.03629302978516 123.56735229492185 L 117.03568267822266 123.56856536865232 L 116.8709945678711 123.96642303466794 L 116.73600006103516 124.29189300537107 L 116.7250747680664 124.31823730468747 L 116.72498321533203 124.31893157958982 L 116.69075775146484 124.58080291748044 L 116.64501190185547 124.92800140380857 L 116.6101303100586 125.19274139404294 L 116.6101303100586 125.19317626953122 L 116.6101303100586 125.19346618652341 L 116.6101303100586 125.19455718994138 L 116.60983276367188 125.19577789306638 L 116.55368041992188 125.62249755859372 L 116.50374603271484 125.99999999999997 L 116.5382308959961 126.26222991943357 L 116.61849975585938 126.8733215332031 L 116.61880493164062 126.87514495849607 L 116.61886596679688 126.87538909912107 L 116.61910247802734 126.87635803222653 L 116.6322021484375 126.97599792480466 L 116.67530822753906 127.30392456054685 L 116.7250747680664 127.68176269531247 L 116.72551727294922 127.68283081054685 L 116.73600006103516 127.70816802978513 L 116.82623291015625 127.92623138427732 L 117.06204223632812 128.49594116210935 L 117.06295776367188 128.49775695800778 L 117.0632553100586 128.49867248535153 L 117.2284164428711 128.89605712890622 L 117.28153228759766 129.02400207519528 L 117.37442016601562 129.2477111816406 L 117.37474060058594 129.24813842773435 L 117.37521362304688 129.24874877929685 L 117.53540802001953 129.45776367187497 L 117.83265686035156 129.84626770019528 L 117.91021728515625 129.94763183593747 L 117.91104125976562 129.94845581054685 L 117.91143035888672 129.94885253906247 L 117.91204071044922 129.94976806640622 L 118.17431640625 130.29171752929685 L 118.40601348876953 130.5939788818359 L 118.4063491821289 130.59423828124997 L 118.40670013427734 130.5945129394531 L 118.61638641357422 130.75517272949216 L 118.78399658203125 130.88363647460935 L 119.02978515625 131.0720062255859 L 119.10637664794922 131.13069152832028 L 119.10758972167969 131.13160705566403 L 119.1084976196289 131.13252258300778 L 119.4503402709961 131.3940734863281 L 119.75228118896484 131.62557983398435 L 119.75361633300781 131.6261291503906 L 119.78343963623047 131.63848876953122 L 119.99658966064453 131.72682189941403 L 120.56583404541016 131.96310424804685 L 120.56735229492188 131.96371459960935 L 120.56761932373047 131.9638519287109 L 120.56856536865234 131.96432495117185 L 120.83200073242188 132.07336425781247 L 120.96642303466797 132.1290130615234 L 121.3182373046875 132.2749328613281 L 121.31925964355469 132.2750549316406 L 121.31949615478516 132.27508544921872 L 121.57357025146484 132.30828857421872 L 121.58080291748047 132.3092346191406 L 121.61959075927734 132.31434631347653 L 122.19274139404297 132.38986206054685 L 122.1945571899414 132.3901672363281 L 122.1950454711914 132.3901672363281 L 122.19548034667969 132.3901672363281 L 122.1957778930664 132.3901672363281 L 122.62249755859375 132.4463195800781 L 122.78760528564453 132.46815490722653 L 122.87999725341797 132.4803771972656 L 122.9974136352539 132.49591064453122 L 123 132.49626159667966 L 123.00098419189453 132.4961242675781 L 123.2622299194336 132.4617767333984 L 123.536865234375 132.42572021484372 L 123.61447143554688 132.41552734374997 L 123.81851196289062 132.38876342773435 L 124.00685119628906 132.36402893066403 L 124.00776672363281 132.36389160156247 L 124.00978088378906 132.36360168457028 L 124.01040649414062 132.36340332031247 L 124.3043212890625 132.32472229003903 L 124.60796356201172 132.28463745117185 L 124.6817626953125 132.2749328613281 L 124.6818618774414 132.2748870849609 L 124.68283081054688 132.27449035644528 L 124.92623138427734 132.17376708984372 L 124.9280014038086 132.17303466796872 L 125.49593353271484 131.93795776367185 L 125.49683380126953 131.9376525878906 L 125.49775695800781 131.93734741210935 L 125.49805450439453 131.93714904785153 L 125.49833679199219 131.93696594238278 L 125.49866485595703 131.93673706054685 L 125.89605712890625 131.7715911865234 L 125.91441345214844 131.76396179199216 L 126.24771881103516 131.62557983398435 L 126.24813842773438 131.62525939941403 L 126.25481414794922 131.6201477050781 L 126.36871337890625 131.5329895019531 L 126.39562225341797 131.51225280761716 L 126.39656066894531 131.51153564453122 L 126.31049346923828 131.0720062255859 L 126.23316192626953 130.67707824707028 L 126.21165466308594 130.56721496582028 L 126.16582489013672 130.33172607421872 L 126.13631439208984 130.18034362792966 L 126.12701416015625 130.13374328613278 L 126.11599731445312 130.07699584960935 L 126.13990783691406 129.02400207519528 L 126.14199829101562 128.93200683593747 L 126.97599792480469 128.5516662597656 L 127.04972839355469 128.51803588867185 L 127.04976654052734 128.51802062988278 L 127.052001953125 128.5169982910156 L 127.19084930419922 128.6318206787109 L 127.20834350585938 128.6463928222656 L 127.22467041015625 128.66000366210935 L 127.23074340820312 128.66493225097653 L 127.2395248413086 128.67207336425778 L 127.24276733398438 128.67469787597653 L 127.2454605102539 128.6769866943359 L 127.25369262695312 128.68392944335935 L 127.26089477539062 128.69001770019528 L 127.32244110107422 128.7408294677734 L 127.39676666259766 128.80220031738278 L 127.43444061279297 128.8335266113281 L 127.47737121582031 128.86923217773435 L 127.50431060791016 128.89135742187497 L 127.66456604003906 129.02400207519528 L 127.93399810791016 129.24699401855466 L 128.2524871826172 129.6544036865234 L 128.2838134765625 129.69447326660153 L 128.51617431640625 129.39071655273435 L 128.51715087890625 129.38973999023435 L 128.62583923339844 129.24833679199216 L 128.6327362060547 129.2317199707031 L 128.7188720703125 129.02400207519528 L 129.0216827392578 128.29371643066403 L 129.0240020751953 128.28814697265622 L 129.02914428710938 128.27572631835935 L 129.1216583251953 128.05302429199216 L 129.1216583251953 128.05262756347653 L 129.1216583251953 128.0523529052734 L 129.12571716308594 128.04228210449216 L 129.2745819091797 127.68246459960935 L 129.27525329589844 127.68112945556638 L 129.27529907226562 127.68071746826169 L 129.2842559814453 127.6140441894531 L 129.3682861328125 126.97599792480466 L 129.44482421875 126.39485931396482 L 129.49655151367188 126.00133514404294 L 129.49667358398438 126.00109100341794 L 129.49722290039062 125.99999999999997 L 129.48854064941406 125.93324279785153 L 129.48854064941406 125.93257904052732 L 129.48330688476562 125.89296722412107 L 129.4620819091797 125.73236083984372 L 129.46145629882812 125.73173522949216 L 129.43563842773438 125.53832244873044 L 129.43563842773438 125.537727355957 L 129.41290283203125 125.36212158203122 L 129.35569763183594 124.92800140380857 L 129.275634765625 124.32029724121091 L 129.27542114257812 124.31877136230466 L 129.2748565673828 124.3176345825195 L 129.096923828125 123.88801574707028 L 129.08009338378906 123.84867858886716 L 129.07899475097656 123.84610748291013 L 129.07891845703125 123.84590148925778 L 129.0240020751953 123.71347808837888 L 128.72683715820312 122.99684906005857 L 128.6785125732422 122.87999725341794 L 128.62570190429688 122.75233459472653 L 128.62513732910156 122.75160217285153 L 128.4678192138672 122.54601287841794 L 128.464599609375 122.54180908203122 L 128.44607543945312 122.51766967773435 L 128.34959411621094 122.39193725585935 L 128.34213256835938 122.38224029541013 M 133.419189453125 134.69076538085935 L 133.1199951171875 134.65133666992185 L 132.80726623535156 134.6101379394531 L 132.80682373046875 134.6101379394531 L 132.80653381347656 134.6101379394531 L 132.80543518066406 134.6101379394531 L 132.80422973632812 134.60983276367185 L 132.37750244140625 134.55368041992185 L 132.05108642578125 134.51045227050778 L 132 134.5036926269531 L 131.99880981445312 134.50384521484372 L 131.98529052734375 134.50558471679685 L 131.98548889160156 134.5059661865234 L 132.0059356689453 134.54547119140622 L 132.1199951171875 134.76600646972653 L 132.20843505859375 135.09391784667966 L 132.2283935546875 135.1679992675781 L 132.32984924316406 135.5444641113281 L 132.33697509765625 135.57057189941403 L 132.3535614013672 135.63130187988278 L 132.3687286376953 135.68791198730466 L 132.40431213378906 135.8199310302734 L 132.41799926757812 135.8710021972656 L 131.66299438476562 136.52600097656247 L 131.07200622558594 136.27230834960935 L 130.61074829101562 136.0743255615234 L 130.61000061035156 136.0740051269531 L 130.5850067138672 136.0560607910156 L 130.57086181640625 136.04609680175778 L 130.55062866210938 136.03137207031247 L 130.54490661621094 136.02726745605466 L 130.5423126220703 136.02540588378903 L 130.3673095703125 135.90046691894528 L 130.29283142089844 135.84712219238278 L 130.010498046875 135.64489746093747 L 129.63392639160156 135.3751525878906 L 129.59017944335938 135.34384155273435 L 129.34454345703125 135.1679992675781 L 129.31163024902344 135.1444396972656 L 129.3096466064453 135.14302062988278 L 129.30958557128906 135.1429748535156 L 129.29547119140625 135.1489105224609 L 129.24948120117188 135.1679992675781 L 129.1043243408203 135.22827148437497 L 129.0240020751953 135.26161193847653 L 128.75311279296875 135.37406921386716 L 128.75234985351562 135.37438964843747 L 128.75228881835938 135.3744201660156 L 128.739501953125 135.38421630859372 L 128.542236328125 135.53541564941403 L 128.36306762695312 135.67248535156247 L 128.28622436523438 135.73129272460935 L 128.0523681640625 135.91021728515622 L 128.0511474609375 135.91143798828122 L 128.05023193359375 135.91203308105466 L 127.70828247070312 136.17431640624997 L 127.40608978271484 136.40596008300778 L 127.40601348876953 136.40602111816403 L 127.24481964111328 136.61637878417966 L 126.97599792480469 136.9671478271484 L 126.86930847167969 137.10636901855466 L 126.86839294433594 137.10758972167966 L 126.86748504638672 137.1085052490234 L 126.60591888427734 137.4503479003906 L 126.41957092285156 137.6933898925781 L 126.3746109008789 137.75202941894528 L 126.37442016601562 137.75228881835935 L 126.37386322021484 137.75361633300778 L 126.27317810058594 137.99659729003903 L 126.2407455444336 138.07499694824216 L 126.17229461669922 138.24047851562497 L 126.16984558105469 138.24627685546872 L 126.16482543945312 138.2581634521484 L 126.1341781616211 138.3307189941406 L 126.03618621826172 138.56767272949216 L 125.95604705810547 138.76185607910153 L 125.9010009765625 138.89523315429685 L 125.87185668945312 138.9658508300781 L 125.76058197021484 139.23455810546872 L 125.74799346923828 139.26400756835935 L 125.74717712402344 139.2658996582031 L 125.74539184570312 139.27008056640622 L 125.73006439208984 139.30592346191403 L 125.72682189941406 139.3135070800781 L 125.72659301757812 139.31405639648435 L 125.72599792480469 139.31542968749997 L 125.72589111328125 139.31816101074216 L 125.69792175292969 139.5308685302734 L 125.69585418701172 139.54533386230466 L 125.69070434570312 139.58135986328122 L 125.6885757446289 139.60031127929685 L 125.62574768066406 140.0748138427734 L 125.6101303100586 140.1927337646484 L 125.6101303100586 140.1934661865234 L 125.6101303100586 140.1945648193359 L 125.60983276367188 140.19577026367185 L 125.55368041992188 140.62249755859372 L 125.5037612915039 140.99984741210935 L 125.50374603271484 140.99999999999997 L 125.5382308959961 141.2622375488281 L 125.54476928710938 141.3119964599609 L 125.61849975585938 141.8733215332031 L 125.61880493164062 141.87513732910153 L 125.61910247802734 141.87635803222653 L 125.6194839477539 141.87922668457028 L 125.67530822753906 142.30392456054685 L 125.7250747680664 142.68176269531247 L 125.77223205566406 142.79573059082028 L 125.82623291015625 142.92622375488278 L 126.00577545166016 143.36000061035153 L 126.06204223632812 143.49594116210935 L 126.06295776367188 143.49775695800778 L 126.0632553100586 143.49867248535153 L 126.2284164428711 143.89605712890622 L 126.25952911376953 143.97099304199216 L 126.37407684326172 144.24688720703122 L 126.37442016601562 144.2477111816406 L 126.53540802001953 144.45776367187497 L 126.91021728515625 144.94763183593747 L 126.91143035888672 144.94885253906247 L 126.91204071044922 144.94976806640622 L 126.97599792480469 145.03315734863278 L 127.17431640625 145.29171752929685 L 127.2634506225586 145.40800476074216 L 127.40596008300781 145.5939025878906 L 127.40601348876953 145.5939788818359 L 127.61638641357422 145.75517272949216 L 128.1063690185547 146.13069152832028 L 128.1075897216797 146.13160705566403 L 128.107666015625 146.13168334960935 L 128.10850524902344 146.13252258300778 L 128.26727294921875 146.25399780273435 L 128.45034790039062 146.3940734863281 L 128.75228881835938 146.62557983398435 L 128.7536163330078 146.6261291503906 L 128.75375366210938 146.62619018554685 L 128.99659729003906 146.72682189941403 L 129.0240020751953 146.73820495605466 L 129.56582641601562 146.96310424804685 L 129.56735229492188 146.96371459960935 L 129.567626953125 146.9638519287109 L 129.56857299804688 146.96432495117185 L 129.6388702392578 146.99342346191403 L 129.96641540527344 147.1290130615234 L 130.3182373046875 147.2749328613281 L 130.3192596435547 147.2750549316406 L 130.31936645507812 147.27507019042966 L 130.580810546875 147.3092346191406 L 131.07200622558594 147.37396240234372 L 131.19273376464844 147.38986206054685 L 131.19456481933594 147.3901672363281 L 131.19577026367188 147.3901672363281 L 131.62249755859375 147.4463195800781 L 131.69566345214844 147.45599365234372 L 131.99951171875 147.49618530273435 L 132 147.49626159667966 L 132.00259399414062 147.49591064453122 L 132.26223754882812 147.4617767333984 L 132.30618286132812 147.45599365234372 L 132.536865234375 147.42572021484372 L 132.59432983398438 147.41816711425778 L 132.61447143554688 147.41552734374997 L 132.81851196289062 147.38876342773435 L 133.00685119628906 147.36402893066403 L 133.00978088378906 147.36360168457028 L 133.01040649414062 147.36340332031247 L 133.1199951171875 147.3489837646484 L 133.3043212890625 147.32472229003903 L 133.4743194580078 147.3022766113281 L 133.6079559326172 147.28463745117185 L 133.6817626953125 147.2749328613281 L 133.9262237548828 147.17376708984372 L 134.49594116210938 146.93795776367185 L 134.4977569580078 146.93734741210935 L 134.4983367919922 146.93696594238278 L 134.49867248535156 146.93673706054685 L 134.89605712890625 146.7715911865234 L 135.16799926757812 146.6586761474609 L 135.24771118164062 146.62557983398435 L 135.4431915283203 146.47575378417966 L 135.457763671875 146.4645843505859 L 135.83306884765625 146.1774749755859 L 136.0471649169922 146.01371765136716 L 136.2330780029297 145.87152099609372 L 136.25352478027344 145.85588073730466 L 136.2535858154297 145.85580444335935 L 136.253662109375 145.8557434082031 L 136.25372314453125 145.85571289062497 L 136.25430297851562 145.8552551269531 L 136.2663116455078 145.84603881835935 L 136.2927703857422 145.82568359374997 L 136.59385681152344 145.59405517578122 L 136.59396362304688 145.59396362304685 L 136.5944366455078 145.59335327148435 L 136.7364959716797 145.40800476074216 L 136.7551727294922 145.38362121582028 L 137.09866333007812 144.93556213378903 L 137.21600341796875 144.78248596191403 L 137.2169189453125 144.7812805175781 L 137.2181396484375 144.77946472167966 L 137.48545837402344 144.43098449707028 L 137.6247100830078 144.24948120117185 L 137.62583923339844 144.24833679199216 L 137.6262664794922 144.24731445312497 L 137.71408081054688 144.0355529785156 L 137.99420166015625 143.36000061035153 L 138.02914428710938 143.27572631835935 L 138.1216583251953 143.05302429199216 L 138.1216583251953 143.0523529052734 L 138.12571716308594 143.04228210449216 L 138.2745819091797 142.68280029296872 L 138.27525329589844 142.68147277832028 L 138.27529907226562 142.6810607910156 L 138.2772979736328 142.6661224365234 L 138.2842559814453 142.6140441894531 L 138.44482421875 141.39485168457028 L 138.45571899414062 141.3119964599609 L 138.49610900878906 141.0046691894531 L 138.49655151367188 141.0013275146484 L 138.49700927734375 141.00042724609372 L 138.49722290039062 140.99999999999997 L 138.48854064941406 140.93324279785153 L 138.48854064941406 140.93257141113278 L 138.48330688476562 140.89295959472653 L 138.4620819091797 140.73236083984372 L 138.4616241455078 140.7319183349609 L 138.46145629882812 140.73173522949216 L 138.4382781982422 140.55802917480466 L 138.43563842773438 140.53833007812497 L 138.43563842773438 140.53771972656247 L 138.41290283203125 140.36212158203122 L 138.33995056152344 139.80844116210935 L 138.2754669189453 139.3191223144531 L 138.27542114257812 139.31877136230466 L 138.2748565673828 139.31762695312497 L 138.2526397705078 139.26400756835935 L 138.096923828125 138.88801574707028 L 138.0808563232422 138.85046386718747 L 138.08009338378906 138.84867858886716 L 138.07899475097656 138.8460998535156 L 137.72683715820312 137.99684143066403 L 137.62570190429688 137.75233459472653 L 137.62513732910156 137.75160217285153 L 137.62442016601562 137.75065612792966 L 137.4678192138672 137.54602050781247 L 137.464599609375 137.54180908203122 L 137.44607543945312 137.51766967773435 L 137.34959411621094 137.39193725585935 L 137.34213256835938 137.3822326660156 L 137.33729553222656 137.37591552734372 L 137.32484436035156 137.35961914062497 L 137.21600341796875 137.21720886230466 L 137.21507263183594 137.21600341796872 L 137.18443298339844 137.17591857910153 L 137.17823791503906 137.16781616210935 L 137.14840698242188 137.1289367675781 L 136.82568359375 136.7082824707031 L 136.59397888183594 136.40602111816403 L 136.59349060058594 136.40563964843747 L 136.59117126464844 136.40385437011716 L 136.3836212158203 136.24482727050778 L 136.28236389160156 136.16723632812497 L 136.117919921875 136.04119873046872 L 135.8936309814453 135.86930847167966 L 135.8924102783203 135.8683929443359 L 135.89149475097656 135.86747741699216 L 135.54965209960938 135.60592651367185 L 135.25830078125 135.38253784179685 L 135.24771118164062 135.3744201660156 L 135.16799926757812 135.34123229980466 L 135.06640625 135.29895019531247 L 135.00355529785156 135.2730560302734 L 134.9989776611328 135.27108764648435 L 134.7505340576172 135.1679992675781 L 134.4501190185547 135.04333496093747 L 134.4440460205078 135.04081726074216 L 134.05291748046875 134.8787689208984 L 134.03358459472656 134.87098693847653 L 133.68283081054688 134.72550964355466 L 133.68275451660156 134.72547912597653 L 133.6817626953125 134.72506713867185 L 133.4857940673828 134.69946289062497 L 133.419189453125 134.69076538085935 M -92.47782135009766 -139.88415527343747 L -92.21147155761719 -139.26400756835935 L -91.78545379638672 -138.27206420898435 L -91.60620880126953 -137.85450744628903 L -91.15469360351562 -136.1041107177734 L -91.03784942626953 -135.65106201171872 L -91.03779602050781 -135.6508636474609 L -90.98614501953125 -135.1679992675781 L -90.8414535522461 -133.8154144287109 L -90.79077911376953 -133.3417816162109 L -90.79058837890625 -133.34002685546872 L -90.85577392578125 -131.47515869140622 L -90.86981201171875 -131.0720062255859 L -90.87247467041016 -130.99548339843747 L -90.87258911132812 -130.9921722412109 L -91.19691467285156 -129.1551361083984 L -91.22003173828125 -129.02400207519528 L -91.28079986572266 -128.67933654785153 L -91.4103012084961 -128.28228759765622 L -91.6134262084961 -127.65995025634763 L -91.6153793334961 -127.65397644042966 L -91.61551666259766 -127.65356445312497 L -91.62225341796875 -127.63291931152341 L -91.62213134765625 -127.63282775878903 L -90.70256805419922 -126.97599792480466 L -90.57726287841797 -126.88648986816403 L -90.40686798095703 -126.76485443115232 L -90.11199951171875 -126.55424499511716 L -90.02250671386719 -126.49031829833982 L -90.02196502685547 -126.48993682861325 L -90.02172088623047 -126.48967742919919 L -88.53426361083984 -124.95796966552732 L -88.20570373535156 -124.61967468261716 L -87.03922271728516 -122.87999725341794 L -87.016357421875 -122.84590148925778 L -86.75399780273438 -122.45451354980466 L -86.7538070678711 -122.454231262207 L -86.01599884033203 -120.75912475585935 L -85.89970397949219 -120.49193572998044 L -85.7110824584961 -120.05860900878903 L -85.41017150878906 -118.78399658203122 L -85.21763610839844 -117.96844482421872 L -85.10871887207031 -117.50680541992185 L -84.99150848388672 -115.35106658935544 L -84.9655990600586 -114.8760070800781 L -84.96553802490234 -114.87499999999997 L -84.9655990600586 -114.87453460693357 L -84.9883041381836 -114.68800354003903 L -85.22783660888672 -112.72008514404294 L -85.28572082519531 -112.24419403076169 L -85.78740692138672 -110.59200286865232 L -85.92015075683594 -110.15485382080075 L -86.01599884033203 -109.83929443359372 L -86.05897521972656 -109.69780731201169 L -86.06026458740234 -109.69357299804685 L -87.04632568359375 -107.73455810546872 L -87.26398468017578 -107.30177307128903 L -87.85935974121094 -106.4960021972656 L -88.57218170166016 -105.5312805175781 L -88.86124420166016 -105.1401443481445 L -90.11199951171875 -103.93901062011716 L -90.45223236083984 -103.61228179931638 L -90.80350494384766 -103.27506256103513 L -92.0926513671875 -102.40000152587888 L -92.62809753417969 -102.03653717041013 L -92.75611877441406 -101.94964599609372 L -93.02458953857422 -101.76742553710935 L -93.03096008300781 -101.76309967041013 L -93.0311279296875 -101.76298522949216 L -94.20800018310547 -101.22795104980466 L -94.38240051269531 -101.14866638183591 L -94.87676239013672 -100.92390441894528 L -94.86443328857422 -100.9061584472656 L -94.86199188232422 -100.90265655517575 L -94.82674407958984 -100.85192871093747 L -94.70968627929688 -100.68524932861325 L -94.5700454711914 -100.35199737548825 L -94.20800018310547 -99.48802185058591 L -94.1309585571289 -99.30417633056638 L -94.01836395263672 -99.03527832031247 L -93.8860855102539 -98.30400085449216 L -93.75202941894531 -97.56291198730466 L -93.70037078857422 -97.27709197998044 L -93.70020294189453 -97.27613830566403 L -93.75379943847656 -95.7560348510742 L -93.76419830322266 -95.45999908447264 L -94.07013702392578 -94.20800018310545 L -94.13606262207031 -93.93822479248045 L -94.20800018310547 -93.64401245117186 L -94.20832061767578 -93.64270782470702 L -94.20852661132812 -93.64186096191405 L -94.88775634765625 -92.16447448730467 L -95.01972961425781 -91.87734222412108 L -95.02001190185547 -91.87672424316405 L -95.98567199707031 -90.48895263671874 L -96.17366027832031 -90.21874999999999 L -96.27763366699219 -90.11199951171874 L -97.39644622802734 -88.9633102416992 L -97.63463592529297 -88.71877288818358 L -98.30400085449219 -88.21529388427733 L -99.07769012451172 -87.63334655761717 L -99.35803985595703 -87.42251586914061 L -99.35877227783203 -87.42196655273436 L -100.97770690917969 -86.53921508789061 L -101.29291534423828 -86.36730957031249 L -102.23200225830078 -86.01599884033202 L -103.03914642333984 -85.71405029296874 L -103.37921142578125 -85.5869903564453 L -105.19914245605469 -85.1833038330078 L -105.55101013183594 -85.10525512695311 L -105.55367279052734 -85.10466003417967 L -105.55368041992188 -85.10466003417967 L -106.49600219726562 -85.03214263916014 L -107.39286804199219 -84.96311950683592 L -107.75080871582031 -84.9355010986328 L -109.55232238769531 -85.06029510498045 L -109.90327453613281 -85.08466339111327 L -110.59200286865234 -85.24056243896483 L -111.61265563964844 -85.47159576416014 L -111.94163513183594 -85.5460968017578 L -111.94557189941406 -85.54698944091795 L -113.095947265625 -86.01599884033202 L -113.51090240478516 -86.18518066406249 L -113.81571197509766 -86.30931091308592 L -114.68800354003906 -86.86054229736327 L -115.1900863647461 -87.17782592773436 L -115.45594024658203 -87.34585571289061 L -115.45768737792969 -87.34696197509764 L -116.598388671875 -88.42066192626952 L -116.82066345214844 -88.62977600097655 L -117.69419860839844 -89.87600708007811 L -117.85942077636719 -90.11199951171874 L -117.86415100097656 -90.11875152587889 L -118.04218292236328 -90.54317474365233 L -118.1220932006836 -90.73352050781249 L -118.1770248413086 -90.86463928222655 L -118.29576110839844 -91.14804077148436 L -118.30264282226562 -91.16445922851561 L -118.30296325683594 -91.16522216796874 L -118.65602111816406 -91.01098632812499 L -118.78399658203125 -90.95526123046874 L -118.89232635498047 -90.90809631347655 L -118.89263153076172 -90.90796661376952 L -119.30314636230469 -90.81063079833983 L -120.83200073242188 -90.44791412353514 L -121.69088745117188 -90.24414825439452 L -122.11399841308594 -90.22044372558592 L -122.87999725341797 -90.17777252197264 L -124.06060791015625 -90.11199951171874 L -124.57503509521484 -90.08334350585936 L -124.57585144042969 -90.08329772949217 L -124.81407928466797 -90.11199951171874 L -124.99881744384766 -90.13426208496092 L -126.97599792480469 -90.37182617187499 L -127.4589614868164 -90.42985534667967 L -127.86888885498047 -90.55355834960936 L -130.2532196044922 -91.2733688354492 L -130.63766479492188 -91.4662628173828 L -131.07200622558594 -91.68433380126952 L -132.873779296875 -92.58899688720702 L -133.22103881835938 -92.8451461791992 L -135.06777954101562 -94.20800018310545 L -135.16799926757812 -94.28195953369139 L -135.2394561767578 -94.33468627929686 L -135.23992919921875 -94.3350372314453 L -135.53933715820312 -94.64674377441405 L -137.2813720703125 -96.4594802856445 L -137.2813720703125 -96.4594802856445 L -137.52403259277344 -96.81726074218747 L -138.53244018554688 -98.30400085449216 L -138.93539428710938 -98.89808654785153 L -138.93556213378906 -98.89833068847653 L -139.11392211914062 -99.29122161865232 L -139.26400756835938 -99.62168121337888 L -140.15135192871094 -101.57559967041013 L -140.15147399902344 -101.57588958740232 L -140.26022338867188 -101.99203491210935 L -140.36688232421875 -102.40000152587888 L -140.8931427001953 -104.41300201416013 L -140.9290008544922 -104.83966827392575 L -141.06773376464844 -106.4960021972656 L -141.13427734375 -107.29042816162107 L -141.13662719726562 -107.31851959228513 L -141.13685607910156 -107.32111358642575 L -141.09873962402344 -107.74501037597653 L -141.0834197998047 -107.91375732421872 L -141.0786895751953 -107.96592712402341 L -141.0778350830078 -107.97619628906247 L -141.0655517578125 -108.11373901367185 L -141.0267333984375 -108.54399871826169 L -140.89695739746094 -109.98287963867185 L -140.89752197265625 -109.98322296142575 L -140.90341186523438 -109.98669433593747 L -140.93821716308594 -110.00724029541013 L -140.9466094970703 -110.01194000244138 L -140.98793029785156 -110.03613281249997 L -140.99005126953125 -110.03783416748044 L -140.99217224121094 -110.03955078124997 L -141.31199645996094 -110.29771423339841 L -141.6765899658203 -110.59200286865232 L -142.42408752441406 -111.19538116455075 L -142.99220275878906 -111.65382385253903 L -143.36000061035156 -112.04814910888669 L -144.26551818847656 -113.01895904541013 L -144.76687622070312 -113.5566482543945 L -144.76889038085938 -113.55879974365232 L -145.559326171875 -114.68800354003903 L -145.83847045898438 -115.08677673339841 L -146.26187133789062 -115.69134521484372 L -147.09759521484375 -117.33769226074216 L -147.42771911621094 -117.98860931396482 L -147.45599365234375 -118.07295989990232 L -148.0023193359375 -119.70238494873044 L -148.22915649414062 -120.37892150878903 L -148.2295684814453 -120.38014984130857 L -148.52655029296875 -122.10899353027341 L -148.64413452148438 -122.7929763793945 L -148.6446533203125 -122.87999725341794 L -148.6541748046875 -124.48522949218747 L -148.65811157226562 -125.1520080566406 L -148.6581268310547 -125.15423583984372 L -148.38050842285156 -126.75753784179685 L -148.34274291992188 -126.97599792480466 L -148.27084350585938 -127.39178466796872 L -147.7148895263672 -128.8580627441406 L -147.4949951171875 -129.43804931640622 L -147.49497985839844 -129.43807983398435 L -147.45599365234375 -129.49931335449216 L -146.67721557617188 -130.72283935546872 L -146.45492553710938 -131.0720062255859 L -146.35508728027344 -131.22883605957028 L -146.35386657714844 -131.2307434082031 L -145.29934692382812 -132.29386901855466 L -144.88217163085938 -132.71472167968747 L -143.62249755859375 -133.52532958984372 L -143.36000061035156 -133.69416809082028 L -143.1241912841797 -133.8458557128906 L -141.69808959960938 -134.37884521484372 L -141.13394165039062 -134.58969116210935 L -141.13392639160156 -134.5897064208984 L -139.58372497558594 -134.82858276367185 L -139.26400756835938 -134.87780761718747 L -138.97181701660156 -134.92280578613278 L -138.97067260742188 -134.92297363281247 L -137.34442138671875 -134.86056518554685 L -136.701416015625 -134.83598327636716 L -135.16799926757812 -134.50054931640622 L -135.04861450195312 -134.47442626953122 L -134.39486694335938 -134.33142089843747 L -133.1199951171875 -133.82281494140622 L -132.7657470703125 -133.68148803710935 L -132.4070587158203 -133.53833007812497 L -132.126708984375 -133.42643737792966 L -132.12359619140625 -133.42518615722653 L -132.12132263183594 -133.42428588867185 L -132.0959930419922 -133.40936279296872 L -131.78233337402344 -133.22453308105466 L -131.7720184326172 -133.21850585937497 L -131.77120971679688 -133.21762084960935 L -131.60549926757812 -133.11999511718747 L -131.41017150878906 -133.00494384765622 L -131.21800231933594 -132.8915100097656 L -131.20956420898438 -132.88652038574216 L -131.12733459472656 -133.11999511718747 L -131.07200622558594 -133.27711486816403 L -131.03634643554688 -133.37834167480466 L -130.98074340820312 -133.53637695312497 L -130.9627227783203 -133.58761596679685 L -130.962158203125 -133.58920288085935 L -130.96194458007812 -133.58959960937497 L -130.09716796875 -135.1679992675781 L -129.73683166503906 -135.82568359374997 L -129.6282501220703 -136.0239105224609 L -129.62796020507812 -136.02445983886716 L -128.705078125 -137.21600341796872 L -128.04595947265625 -138.06698608398435 L -127.90534210205078 -138.2485656738281 L -126.97599792480469 -139.12773132324216 L -126.83194732666016 -139.26400756835935 L -126.0154037475586 -140.03646850585935 L -125.84739685058594 -140.1953430175781 L -124.9280014038086 -140.82972717285153 L -124.22904205322266 -141.3119964599609 L -123.70651245117188 -141.67254638671872 L -123.51622009277344 -141.80387878417966 L -123.51607513427734 -141.8039398193359 L -122.87999725341797 -142.11067199707028 L -121.18872833251953 -142.9262542724609 L -120.98188018798828 -143.02600097656247 L -119.86981201171875 -143.36000061035153 L -118.78399658203125 -143.68611145019528 L -118.53948211669922 -143.7595520019531 L -118.3269271850586 -143.82336425781247 L -118.32237243652344 -143.8247375488281 L -115.83953094482422 -144.1464691162109 L -115.61878967285156 -144.17514038085935 L -114.68800354003906 -144.13775634765622 L -113.16903686523438 -144.07678222656247 L -112.95136260986328 -144.0679779052734 L -110.61192321777344 -143.55136108398435 L -110.59200286865234 -143.54696655273435 L -110.40394592285156 -143.5054016113281 L -110.0622329711914 -143.36000061035153 L -108.54399871826172 -142.71394348144528 L -108.2437515258789 -142.58618164062497 L -108.0517578125 -142.50451660156247 L -108.05162048339844 -142.5044250488281 L -108.0503921508789 -142.50355529785153 L -108.049560546875 -142.5027160644531 L -108.0494155883789 -142.50286865234372 L -108.04898834228516 -142.50329589843747 L -108.04627990722656 -142.50604248046872 L -107.96836853027344 -142.58496093749997 L -107.60887145996094 -142.94905090332028 L -107.60752868652344 -142.95033264160153 L -107.5199966430664 -143.03898620605466 L -107.43151092529297 -143.12861633300778 L -107.38821411132812 -143.15914916992185 L -107.10345458984375 -143.36000061035153 L -106.49600219726562 -143.78845214843747 L -106.10162353515625 -144.06660461425778 L -105.75727844238281 -144.3094329833984 L -104.32723236083984 -144.95330810546872 L -103.9583969116211 -145.11935424804685 L -103.95684814453125 -145.12005615234372 L -102.4703598022461 -145.4499359130859 L -102.4000015258789 -145.46557617187497 L -102.08541107177734 -145.53546142578122 L -100.5877914428711 -145.54182434082028 L -100.20085144042969 -145.54345703124997 L -100.19976806640625 -145.54345703124997 L -98.73554229736328 -145.2254943847656 L -98.357177734375 -145.14338684082028 L -98.35653686523438 -145.14324951171872 L -98.30400085449219 -145.1192932128906 L -96.97100830078125 -144.51129150390622 L -96.61210632324219 -144.3476409912109 L -95.34739685058594 -143.42077636718747 L -95.26451873779297 -143.36000061035153 L -95.02326202392578 -143.1830902099609 L -95.0198745727539 -143.18061828613278 L -94.20800018310547 -142.30395507812497 L -93.91414642333984 -141.98664855957028 L -93.62763977050781 -141.67758178710935 L -92.71428680419922 -140.25309753417966 L -92.47782135009766 -139.88415527343747 M 136.25372314453125 145.85571289062497 L 136.25372314453125 145.85571289062497 M -94.87676239013672 -100.92390441894528 L -94.87676239013672 -100.92390441894528 z" fill="none" stroke="rgb(255,0,0)" stroke-width="0.001mm" />
</svg>